<svg width="12" height="12" viewBox="0 0 12 12" fill="none" xmlns="http://www.w3.org/2000/svg">
<path id="Star background" d="M6.00454 0.530202C6.11385 0.267388 6.48615 0.267388 6.59546 0.530201L7.91776 3.70939C7.96384 3.82018 8.06804 3.89589 8.18765 3.90548L11.6198 4.18063C11.9036 4.20338 12.0186 4.55746 11.8025 4.74264L9.18748 6.98264C9.09635 7.0607 9.05655 7.18319 9.08439 7.29991L9.88331 10.6492C9.94935 10.926 9.64815 11.1449 9.40524 10.9965L6.4668 9.20171C6.36439 9.13916 6.2356 9.13916 6.1332 9.20171L3.19476 10.9965C2.95184 11.1449 2.65064 10.926 2.71669 10.6492L3.5156 7.29991C3.54345 7.18319 3.50365 7.0607 3.41252 6.98264L0.797542 4.74264C0.58137 4.55746 0.696418 4.20338 0.980148 4.18063L4.41235 3.90548C4.53196 3.89589 4.63616 3.82018 4.68224 3.70939L6.00454 0.530202Z" fill="#F5F5F5"/>
</svg>
